<?xml version="1.0" encoding="UTF-8"?>
<svg id="Layer_1" xmlns="http://www.w3.org/2000/svg" version="1.1" viewBox="0 0 606.97 570.59">
  <defs>
    <style>
      .st0 {
        fill: #9fc541;
      }

      .st1 {
        fill: #205189;
      }
    </style>
  </defs>
  <g>
    <path class="st1" d="M177.86,528.19h-15.5c-1.98,0-15.61-22-17-22h-14.5v22h-13v-69h39.5c.39,0,6.25,2.35,7.18,2.82,17.54,8.76,14.66,36.55-3.66,42.68l16.98,23.5ZM130.86,494.19h23.5c6.95,0,10.94-11.8,6.96-17.96-.84-1.3-5.96-5.04-6.96-5.04h-24.5c-.27.73,1,1.2,1,1.5v21.5Z"/>
    <path class="st0" d="M497.99,493.91c0,20.07-16.27,36.34-36.34,36.34s-36.34-16.27-36.34-36.34,16.27-36.34,36.34-36.34,36.34,16.27,36.34,36.34ZM485.23,493.96c0-13.02-10.56-23.58-23.58-23.58s-23.58,10.56-23.58,23.58,10.56,23.58,23.58,23.58,23.58-10.56,23.58-23.58Z"/>
    <path class="st1" d="M240.36,458.19c.49.06,3.44,1.18,3.56,1.62l-.06,11.38h-49.5c-.35,0-1.34.94-1.06,2.03.22.9,11.14,13.97,12.06,13.97h35.5v12h-37v15.5c0,.11,1.39,1.5,1.5,1.5h39.5v12.01s-54.01,0-54.01,0v-70.01c15.45,1.47,34.5-1.98,49.51,0Z"/>
    <path class="st1" d="M59.86,508.19v20h-13v-69h39.5c.79,0,8.24,3.73,9.44,4.56,14.01,9.83,12.27,33.87-3.26,41.62-.94.47-6.8,2.82-7.18,2.82h-25.5ZM59.86,497.19h20.5c.37,0,5.17-1.74,5.87-2.13,6.37-3.64,8.13-12.75,4.1-18.84-.86-1.3-5.96-5.03-6.97-5.03h-28c-.46,0-2.65-2.8-2.49.49.84,1.26,6.99,6.52,6.99,7.01v18.5Z"/>
    <path class="st0" d="M547.86,459.19h16l-22,32.59,1.14,4.77,21.85,31.14c-4.07.86-12.25,3.06-15.71.2-4.48-5.12-9.76-17.06-14.26-21.23-2.39-2.22-2.76-2.07-4.9.15-3.27,3.4-12.71,20.7-15.12,21.88-3.52,1.71-11.09.04-15-.51l18.56-27.93c1.95-2.41,5.01-4.2,5.4-7.57-.87-3.84-23.97-31.81-21.95-33.49,5.32.52,10.07-2.9,14.97.52,3.6,2.51,13.06,22.33,16.48,21.48,1.28-.32,13.36-18.93,14.54-22Z"/>
    <path class="st1" d="M310.76,478.11c-6.39-2.49-10.15-6.99-17.5-7.81-35.8-3.99-34.38,52.82,1.87,46.65,4.66-.79,13.55-8.17,15.11-7.71,1.03.31,7.18,7.71,6.17,9.93-2.65,5.8-21.81,11.19-27.98,11.05-48.27-1.16-47.53-79.51,9.68-71.77,4.59.62,16.34,5.47,18.29,9.76,1.84,4.06-5.13,5.96-5.64,9.9Z"/>
    <path class="st0" d="M387.97,506.07c.45.28,2.33.28,2.77,0l19.61-46.89c1.82-2.21,11.27-.44,14.5-.99l-31.46,71.07c-5.43-.49-8.6,1.89-11.58-3.53-10.16-18.46-15.82-43.72-26.49-62.52-3.98-6.54,11.33-6.18,13.59-3.58,3.89,5.19,16.93,45.1,19.05,46.44Z"/>
    <rect class="st1" x="329.86" y="459.19" width="13" height="69"/>
  </g>
  <g>
    <path class="st1" d="M199.86,97.19c-1.83,11-6.14,21.66-6,33h-38l45.1,153.9h238.3c5.34-1,10.57-2.54,14.05-6.96,17.92-43.61,31.96-88.9,47.57-133.45,1.79-20.25-25.08-11.76-37.01-13.49-.09-11.33-4.02-22-6-33.01h58.5c.42,0,6.79,2.6,7.88,3.12,15.11,7.24,17.87,24.08,13.11,38.87-20.2,48.14-32.25,105.36-53.63,152.37-5.12,11.25-18.12,24.64-31.36,24.64h-241.5c3.23,5.67,4.46,24.64,11.53,25.97l235.53.47c12.72,1.93,18.11,17.13,9.96,27.07-1.57,1.91-7.26,5.49-9.51,5.49h-20.5c15.69,55.88-70.74,55.99-55,0h-102c15.66,55.67-70.38,56.2-56,0h-14.5c-6.88,0-19.52-11.72-21.26-18.74L105.73,77.82c-1.63-2.68-5.44-4.14-8.46-4.54-12.75-1.73-31.28.98-43.47-1.53-18.88-3.88-15.46-30.97,2.85-32.36,10.56-.8,48.89,1.08,58.18,4.32,24.42,8.51,22.49,33.76,31.52,53.48h53.5Z"/>
    <g>
      <path class="st0" d="M317.66,25.49c80.25-6.18,151.81,62.68,126.47,144.47-15.57,50.25-70.38,82.21-121.75,79.23-8.13-.47-23.95-5.5-29.89-4.95-9.99.94-31.32,15.88-42.61,18.46-8.03,1.84-13.66-.58-15.08-9.02l6.89-38.79c-9.98-11.6-19.75-23.03-25.59-37.44-29.37-72.45,27.33-146.25,101.56-151.97ZM257.87,237.19c1.42.3,2.46-.33,3.71-.78,6.21-2.26,24.43-13.51,28.93-13.96,2.8-.28,24.41,6.35,31.81,6.78,67.02,3.91,128.04-56.48,101.02-124.02-22.36-55.92-94.81-75.54-146.15-47.19-58.11,32.09-67,106.89-14.47,148.88l-4.85,30.29Z"/>
      <path class="st1" d="M282.18,150.51c8.07-7.39,13.92,4.25,19.21,8.66,15.9,13.27,39.9,13.42,55.49-.47,4.86-4.33,10.22-15.22,18.07-8.09,9.24,8.41-10.6,22.94-17.41,26.75-19.68,11-41.5,10.1-60.59-1.75-6.24-3.88-23.38-17.22-14.77-25.1Z"/>
      <path class="st0" d="M335.86,107.19v30.5c0,5.12-14.81,8.43-15.05-4.04-.08-4.2,0-8.62,0-12.92,0-4.88,1.55-9.12.04-13.54-.73-.56-10.58,10.47-14.58,10.98-5.11.66-8.88-2.17-8.51-7.49.45-6.58,20.67-19.85,25.14-25.94,7.57-5.05,14.01,2.56,19.48,7.43,2.69,2.4,15.31,14.67,16.04,16.98,1.69,5.33-1.53,9.35-7.05,9.11s-10.73-8.54-15.52-11.07Z"/>
    </g>
  </g>
</svg>
